<?xml version="1.0" encoding="utf-8"?>
<!-- Generator: Adobe Illustrator 14.0.0, SVG Export Plug-In . SVG Version: 6.00 Build 43363)  -->
<!DOCTYPE svg PUBLIC "-//W3C//DTD SVG 1.1//EN" "http://www.w3.org/Graphics/SVG/1.1/DTD/svg11.dtd">
<svg version="1.1" id="Layer_1" xmlns="http://www.w3.org/2000/svg" xmlns:xlink="http://www.w3.org/1999/xlink" x="0px" y="0px"
	 width="625.632px" height="215.163px" viewBox="0 0 625.632 215.163" enable-background="new 0 0 625.632 215.163"
	 xml:space="preserve">
<g>
	<defs>
		<rect id="SVGID_1_" y="0" width="625.632" height="215.163"/>
	</defs>
	<clipPath id="SVGID_2_">
		<use xlink:href="#SVGID_1_"  overflow="visible"/>
	</clipPath>
	<path clip-path="url(#SVGID_2_)" fill="#F8991D" d="M109.352,176.686c-0.033-0.258-0.943-13.788-7.201-29.481
		c-6.289-15.701-15.131-24.736-15.383-25.002c-1.453-1.491-3.386-2.24-5.288-2.261h-0.02h-0.027
		c-1.904,0.021-3.842,0.77-5.292,2.261c-0.244,0.266-9.09,9.301-15.382,25.002c-6.259,15.693-7.171,29.224-7.2,29.481l-0.04,1.723
		v0.014v0.007v0.041l0.02-0.021c0.112,8.565,13.871,8.92,14.157-1.348l0.025-0.47l0.131-2.016c0,0,0.159-2.554,0.867-6.604
		c0.713-4.059,1.966-9.479,4.087-14.775c2.121-5.29,4.694-9.505,6.723-12.344c0.729-1.035,3.12-1.035,3.853,0
		c2.022,2.839,4.595,7.054,6.721,12.344c2.122,5.297,3.383,10.717,4.087,14.775c0.712,4.051,0.864,6.604,0.864,6.604l0.127,2.016
		l0.027,0.47c0.298,10.268,14.054,9.913,14.163,1.348l0.013,0.021v-0.041v-0.007v-0.014L109.352,176.686z"/>
	<path clip-path="url(#SVGID_2_)" fill="#F8991D" d="M156.736,100.695c-0.258-0.051-13.259-3.352-29.968-2.182
		c-16.717,1.192-27.955,6.908-28.282,7.066c-1.84,0.938-3.146,2.563-3.756,4.382v-0.007c0,0.007,0,0.021-0.006,0.033
		c0,0.007-0.01,0.014-0.012,0.028h0.007c-0.568,1.831-0.465,3.915,0.489,5.773c0.175,0.32,5.937,11.615,18.775,22.523
		c12.826,10.86,25.273,15.919,25.511,16.035l1.61,0.558h0.017h0.003l0.034,0.02l-0.009-0.02c8.091,2.547,12.671-10.587,3.104-14.033
		l-0.429-0.17l-1.859-0.742c-0.003,0-2.355-0.946-5.947-2.88c-3.606-1.934-8.314-4.82-12.637-8.497
		c-4.334-3.67-7.493-7.442-9.538-10.274c-0.754-1.015-0.017-3.316,1.185-3.704c3.299-1.076,8.063-2.247,13.694-2.643
		c5.635-0.408,11.129,0.062,15.17,0.627c4.02,0.578,6.483,1.212,6.483,1.212l1.933,0.504l0.446,0.123
		c9.746,2.887,13.668-10.448,5.64-13.205l0.018-0.01l-0.028-0.007h-0.013l-0.007-0.007L156.736,100.695z"/>
	<path clip-path="url(#SVGID_2_)" fill="#F8991D" d="M99.884,31.661c-0.129,0.231-7.254,11.718-11.327,28.131
		c-4.034,16.446-2.134,29.009-2.087,29.378c0.31,2.064,1.441,3.814,2.959,4.96c0.007,0.007,0.024,0.007,0.029,0.019
		c0.009,0.007,0.01,0.013,0.022,0.015l0.004-0.002c1.538,1.113,3.545,1.658,5.579,1.308c0.36-0.057,12.771-2.113,26.99-11.08
		c14.19-8.982,22.789-19.383,22.97-19.575l1.024-1.372l0.012-0.012h0.006l0.016-0.036l-0.016,0.005
		c4.888-6.999-6.043-15.459-12.239-7.319l-0.296,0.36l-1.273,1.556c-0.004,0-1.618,1.972-4.552,4.83
		c-2.925,2.859-7.095,6.499-11.895,9.525c-4.788,3.02-9.318,4.892-12.615,5.994c-1.19,0.396-3.124-1.022-3.117-2.291
		c0.017-3.507,0.371-8.444,1.748-13.976c1.357-5.545,3.488-10.683,5.272-14.387c1.789-3.693,3.146-5.86,3.149-5.862l1.066-1.702
		l0.248-0.399c5.732-8.482-5.598-16.361-10.668-9.505v-0.018l-0.025,0.027v0.012l-0.014,0.005L99.884,31.661z"/>
	<path clip-path="url(#SVGID_2_)" fill="#F8991D" d="M17.365,64.981c0.175,0.196,8.78,10.6,22.966,19.581
		c14.227,8.963,26.635,11.016,26.988,11.091c2.038,0.337,4.041-0.214,5.585-1.314l0.005,0.007c0.011-0.011,0.013-0.02,0.02-0.027
		c0.007-0.011,0.016-0.011,0.023-0.012v-0.011c1.525-1.136,2.654-2.891,2.957-4.957c0.047-0.369,1.95-12.931-2.084-29.381
		c-4.07-16.409-11.193-27.891-11.323-28.127l-0.975-1.41l-0.004-0.01c0,0-0.007-0.001-0.007-0.01l-0.013-0.024l-0.007,0.017
		c-5.072-6.861-16.404,1.039-10.669,9.507l0.25,0.396L52.139,42c0,0.006,1.359,2.169,3.143,5.86
		c1.783,3.703,3.926,8.845,5.288,14.386c1.355,5.541,1.725,10.47,1.738,13.983c0.009,1.277-1.925,2.685-3.12,2.286
		c-3.289-1.099-7.822-2.967-12.61-5.996c-4.797-3.022-8.971-6.663-11.905-9.521c-2.923-2.846-4.541-4.832-4.541-4.832l-1.277-1.561
		l-0.293-0.351c-6.205-8.131-17.126,0.32-12.242,7.321l-0.012-0.005l0.012,0.031h0.013l0.012,0.017L17.365,64.981z"/>
	<path clip-path="url(#SVGID_2_)" fill="#F8991D" d="M23.215,154.619c0.24-0.108,12.683-5.168,25.518-16.027
		c12.836-10.908,18.591-22.203,18.763-22.523c0.961-1.859,1.062-3.956,0.493-5.774h0.007c0-0.014-0.009-0.014-0.017-0.033
		c-0.005-0.014,0-0.014-0.005-0.028h-0.005c-0.598-1.817-1.898-3.445-3.752-4.376c-0.33-0.163-11.565-5.869-28.276-7.07
		c-16.707-1.164-29.714,2.144-29.966,2.193l-1.629,0.499l-0.012,0.002H4.323l-0.037,0.01l0.023,0.017
		c-8.025,2.745-4.096,16.086,5.642,13.191l0.45-0.115l1.932-0.504c0.005,0,2.466-0.647,6.493-1.205
		c4.035-0.572,9.521-1.042,15.165-0.641c5.628,0.396,10.392,1.58,13.691,2.649c1.2,0.381,1.93,2.688,1.186,3.704
		c-2.049,2.824-5.205,6.61-9.539,10.273c-4.323,3.678-9.035,6.564-12.634,8.505c-3.591,1.92-5.954,2.866-5.954,2.859l-1.858,0.756
		l-0.429,0.17c-9.56,3.452-4.986,16.566,3.11,14.04l-0.016,0.014l0.046-0.014l0.017-0.014L23.215,154.619z"/>
	<path clip-path="url(#SVGID_2_)" fill="#6F7073" d="M281.625,107.107c0,31.109-17.775,58.004-48.646,58.004
		c-31.106,0-46.537-27.133-46.537-58.004c0-27.827,13.562-58.463,46.537-58.463C262.213,48.644,281.625,69.924,281.625,107.107
		 M281.625,80.449h-0.471c-5.613-21.75-22.683-36.483-48.175-36.483c-33.209,0-51.215,29.467-51.215,63.141
		c0,36.25,19.408,62.683,51.215,62.683c24.556,0,42.095-15.437,48.175-36.488h0.471v33.676h4.673V-0.001h-4.673V80.449z
		 M394.344,118.566c0,23.627-17.306,46.545-48.646,46.545c-26.19,0-35.079-14.031-35.079-27.834
		c0-25.724,17.776-29.932,36.717-31.336c19.412-1.404,40.224-0.47,46.541-9.59h0.468V118.566z M318.102,83.957
		c1.637-22.452,16.136-35.313,41.16-35.313c32.043,0,35.082,18.708,35.082,33.208c0,18.242-14.033,17.539-47.009,19.412
		c-20.112,1.402-41.394,6.313-41.394,36.013c0,21.284,16.373,32.513,40.222,32.513c24.791,0,43.035-14.734,47.713-30.171h0.468
		v15.668c0,12.392,10.758,12.392,19.879,11.69v-4.678c-6.547,0.701-15.2,1.641-15.2-7.483V78.343
		c-0.706-26.191-18.479-34.377-39.761-34.377c-29.699,0-44.666,17.306-45.839,39.991H318.102z M509.167,82.32
		c0-26.662-16.836-38.354-43.499-38.354c-29.934,0-40.691,16.838-40.691,30.168c0,12.864,4.677,20.579,14.5,24.791
		c6.78,3.04,15.435,5.379,26.894,8.182c20.582,5.147,41.395,8.423,41.395,29.707c0,20.576-21.516,28.297-38.82,28.297
		c-27.832,0-43.968-12.63-43.968-39.293h-4.679c0,30.17,17.074,43.972,48.646,43.972c20.815,0,43.499-9.355,43.499-33.445
		c0-22.918-20.112-27.596-38.589-32.275c-12.863-3.509-22.451-5.613-30.869-8.886c-8.188-3.275-13.332-9.122-13.332-21.049
		c0-4.21,2.338-25.49,36.015-25.49c22.919,0,38.82,9.588,38.82,33.676H509.167z M534.423,166.977h4.679V98.925
		c0-26.662,14.967-50.281,43.732-50.281c20.346,0,38.12,11.459,38.12,39.288v79.045h4.677V87.231
		c0-27.831-17.771-43.265-42.797-43.265c-23.62,0-38.822,14.031-43.263,32.507h-0.47V-0.001h-4.679V166.977z"/>
	<path clip-path="url(#SVGID_2_)" fill="#6F7073" d="M197.239,195.022c-1.995-1.994-4.79-2.995-8.387-2.995h-7.088v23.136h6.406
		c3.895,0,6.877-1.008,8.951-3.029c2.073-2.016,3.108-4.937,3.108-8.756C200.229,199.802,199.232,197.01,197.239,195.022
		 M194.959,210.471c-1.613,1.58-4.025,2.363-7.232,2.363h-3.275v-18.479h3.909c2.985,0,5.235,0.763,6.747,2.295
		c1.515,1.532,2.271,3.806,2.271,6.822C197.379,206.563,196.572,208.892,194.959,210.471 M224.335,215.163l-9.097-23.231h-2.263
		l-9.149,23.231h2.725l2.847-7.354h9.272l2.881,7.354H224.335z M210.346,205.385l2.724-7.17c0.432-1.21,0.762-2.321,0.997-3.335
		c0.369,1.313,0.726,2.43,1.076,3.335l2.689,7.17H210.346z M236.26,194.417h7.326v-2.39h-17.344v2.39h7.327v20.746h2.691V194.417z
		 M266.015,215.163l-9.099-23.231h-2.265l-9.143,23.231h2.719l2.849-7.354h9.274l2.882,7.354H266.015z M252.028,205.385l2.722-7.17
		c0.432-1.21,0.762-2.321,0.998-3.335c0.364,1.313,0.725,2.43,1.072,3.335l2.692,7.17H252.028z M292.543,205.147
		c-0.914-0.987-2.584-1.92-5.008-2.785c-1.445-0.517-2.52-0.986-3.224-1.416c-0.698-0.429-1.199-0.897-1.494-1.409
		c-0.294-0.511-0.444-1.164-0.444-1.968c0-1.09,0.403-1.934,1.201-2.547c0.805-0.612,1.92-0.919,3.34-0.919
		c1.809,0,3.663,0.402,5.574,1.205l0.836-2.342c-1.929-0.845-4.043-1.267-6.345-1.267c-2.201,0-3.979,0.524-5.317,1.58
		c-1.339,1.055-2.009,2.471-2.009,4.255c0,1.702,0.462,3.078,1.386,4.133c0.922,1.056,2.461,1.968,4.614,2.737
		c1.537,0.545,2.685,1.035,3.437,1.471c0.76,0.43,1.293,0.906,1.613,1.416c0.328,0.511,0.489,1.173,0.489,1.975
		c0,1.213-0.454,2.158-1.366,2.833c-0.906,0.688-2.254,1.021-4.048,1.021c-1.096,0-2.206-0.109-3.323-0.348
		c-1.121-0.231-2.152-0.545-3.105-0.946v2.594c1.477,0.71,3.589,1.062,6.332,1.062c2.529,0,4.535-0.572,6.013-1.709
		c1.477-1.143,2.219-2.73,2.219-4.766C293.914,207.428,293.455,206.141,292.543,205.147 M317.826,192.027h-2.685v9.845h-12.189
		v-9.845h-2.688v23.136h2.688v-10.887h12.189v10.887h2.685V192.027z M343.121,215.163l-9.095-23.231h-2.265l-9.148,23.231h2.723
		l2.849-7.354h9.271l2.88,7.354H343.121z M329.133,205.385l2.724-7.17c0.432-1.21,0.762-2.321,0.997-3.335
		c0.367,1.313,0.728,2.43,1.076,3.335l2.688,7.17H329.133z M355.439,205.542l5.604,9.621h3.183l-6.283-10.396
		c3.101-1.076,4.65-3.139,4.65-6.203c0-2.179-0.675-3.819-2.033-4.902c-1.356-1.09-3.449-1.634-6.287-1.634h-6.351v23.136h2.692
		v-9.621H355.439z M350.614,194.389h3.497c1.996,0,3.442,0.334,4.344,1.008c0.902,0.681,1.353,1.784,1.353,3.309
		c0,1.512-0.444,2.643-1.328,3.398c-0.885,0.756-2.282,1.13-4.178,1.13h-3.688V194.389z M372.27,192.027h-2.693v23.136h2.693
		V192.027z M398.307,192.027h-2.518v13.276c-0.02,0.668,0.004,1.771,0.079,3.316s0.119,2.465,0.139,2.744h-0.121l-12.613-19.337
		h-3.037v23.136h2.483v-13.147c0-1.899-0.087-3.99-0.252-6.265h0.125l12.644,19.412h3.071V192.027z M416.462,205.447h5.175v7.122
		c-1.529,0.367-3.095,0.552-4.701,0.552c-2.951,0-5.188-0.804-6.717-2.417c-1.522-1.614-2.287-3.983-2.287-7.109
		c0-2.975,0.793-5.296,2.375-6.979c1.583-1.675,3.782-2.513,6.597-2.513c1.934,0,3.94,0.443,6.035,1.328l1.041-2.376
		c-2.132-0.906-4.434-1.355-6.902-1.355c-2.433,0-4.562,0.477-6.373,1.431c-1.817,0.952-3.203,2.335-4.17,4.146
		c-0.966,1.812-1.451,3.915-1.451,6.318c0,3.759,0.979,6.68,2.929,8.764c1.95,2.083,4.678,3.125,8.182,3.125
		c1.668,0,3.134-0.102,4.402-0.307c1.262-0.197,2.509-0.49,3.729-0.885v-11.248h-7.863V205.447z M453.947,215.163l7.916-20.474
		h0.126c-0.149,2.002-0.225,3.86-0.225,5.569v14.904h2.692v-23.136h-4.019l-7.392,19.085h-0.127l-7.325-19.085h-4.052v23.136h2.485
		v-14.714c0-2.239-0.076-4.167-0.225-5.794h0.127l7.849,20.508H453.947z M489.751,215.163l-9.099-23.231h-2.264l-9.146,23.231h2.717
		l2.854-7.354h9.272l2.88,7.354H489.751z M475.76,205.385l2.725-7.17c0.431-1.21,0.761-2.321,0.997-3.335
		c0.37,1.313,0.724,2.43,1.071,3.335l2.692,7.17H475.76z M510.026,195.022c-1.993-1.994-4.79-2.995-8.381-2.995h-7.093v23.136h6.406
		c3.896,0,6.877-1.008,8.947-3.029c2.077-2.016,3.112-4.937,3.112-8.756C513.018,199.802,512.02,197.01,510.026,195.022
		 M507.748,210.471c-1.61,1.58-4.022,2.363-7.229,2.363h-3.276v-18.479h3.909c2.985,0,5.235,0.763,6.747,2.295
		c1.514,1.532,2.27,3.806,2.27,6.822C510.167,206.563,509.364,208.892,507.748,210.471 M532.695,212.759h-10.207v-8.511h9.59v-2.377
		h-9.59v-7.455h10.207v-2.39h-12.896v23.136h12.896V212.759z M562.378,212.759h-10.207v-8.511h9.586v-2.377h-9.586v-7.455h10.207
		v-2.39h-12.896v23.136h12.896V212.759z M586.455,215.163l-9.097-23.231h-2.269l-9.145,23.231h2.721l2.847-7.354h9.276l2.88,7.354
		H586.455z M572.464,205.385l2.726-7.17c0.431-1.21,0.761-2.321,0.996-3.335c0.369,1.313,0.726,2.43,1.074,3.335l2.69,7.17H572.464z
		 M602.942,205.147c-0.913-0.987-2.584-1.92-5.012-2.785c-1.444-0.517-2.517-0.986-3.218-1.416c-0.705-0.429-1.2-0.897-1.493-1.409
		c-0.298-0.511-0.443-1.164-0.443-1.968c0-1.09,0.402-1.934,1.203-2.547c0.802-0.612,1.912-0.919,3.336-0.919
		c1.806,0,3.662,0.402,5.572,1.205l0.838-2.342c-1.932-0.845-4.048-1.267-6.344-1.267c-2.21,0-3.979,0.524-5.32,1.58
		c-1.338,1.055-2.008,2.471-2.008,4.255c0,1.702,0.459,3.078,1.386,4.133c0.922,1.056,2.462,1.968,4.607,2.737
		c1.543,0.545,2.689,1.035,3.445,1.471c0.754,0.43,1.291,0.906,1.615,1.416c0.323,0.511,0.479,1.173,0.479,1.975
		c0,1.213-0.448,2.158-1.355,2.833c-0.91,0.688-2.259,1.021-4.053,1.021c-1.098,0-2.206-0.109-3.325-0.348
		c-1.114-0.231-2.15-0.545-3.099-0.946v2.594c1.474,0.71,3.588,1.062,6.328,1.062c2.532,0,4.537-0.572,6.013-1.709
		c1.478-1.143,2.217-2.73,2.217-4.766C604.311,207.428,603.855,206.141,602.942,205.147 M610.423,192.027h-2.94l7.706,14.292v8.844
		h2.721v-8.967l7.722-14.169h-2.91l-6.169,11.567L610.423,192.027z"/>
</g>
</svg>
